# xmcd
#
# Track frame offsets:
#	150
#	12800
#	26075
#	38337
#	58925
#	72050
#	86337
#	100475
#	112625
#	141875
#	152325
#	161675
#	174687
#	192837
#	202350
#	216350
#	229725
#	242937
#	255875
#	271700
#
# Disc length: 3770
#
# Revision: 3
# Processed by: cddbd v1.5.1PL0 Copyright (c) Steve Scherf et al.
# Submitted via: CDex 1.40Beta8
# Normalized: r2:TDELIM( - )
#
DISCID=090eb814
DTITLE=Various Artist - Giants Of Soul [CD2/4)
DYEAR=1990
DGENRE=Soul
TTITLE0=Percy Sledge - When A Man Loves A Woman
TTITLE1=Ben E King - Stand By Me
TTITLE2=Jackie Wilson - Reet Petite
TTITLE3=James Brown - Try Me
TTITLE4=Ben E King - Spanish Harlem
TTITLE5=James Brown - Cold Sweat
TTITLE6=Percy Sledge - Warm And Tender Love
TTITLE7=Jackie Wilson - Lonely Teardrops
TTITLE8=James Brown - Sex Machine
TTITLE9=Ben E King - Young Boy Blues
TTITLE10=Jackie Wilson - That's Why (i Love You So)
TTITLE11=Percy Sledge - My Special Prayer
TTITLE12=James Brown - Get On The Good Foot
TTITLE13=Jackie Wilson - I'll Be Satisfied
TTITLE14=Ben E King - Amor
TTITLE15=Percy Sledge - Take Time To Know Her
TTITLE16=James Brown - Please, Please, Please
TTITLE17=Ben E King - Don't Play That Song (you Lied)
TTITLE18=Percy Sledge - Just Out Of Reach
TTITLE19=Jackie Wilson - To Be Loved
EXTD=YEAR: 1990 ID3G: 42
EXTT0=
EXTT1=
EXTT2=
EXTT3=
EXTT4=
EXTT5=
EXTT6=
EXTT7=
EXTT8=
EXTT9=
EXTT10=
EXTT11=
EXTT12=
EXTT13=
EXTT14=
EXTT15=
EXTT16=
EXTT17=
EXTT18=
EXTT19=
PLAYORDER=
